<svg xmlns="http://www.w3.org/2000/svg" width="276.3" height="40.732" viewBox="0 0 276.3 40.732">
  <g id="Group_756" data-name="Group 756" transform="translate(-960 -273.127)">
    <path id="Path_616" data-name="Path 616" d="M1119.226,321.877v3.483h-5.036v17.517h-4.521V325.36h-5.039v-3.483Z" transform="translate(-87.013 -29.329)" fill="#fff"/>
    <path id="Path_617" data-name="Path 617" d="M1154.2,342.876V332.73c0-1.313-.242-2.337-1.606-2.337s-1.613,1.024-1.613,2.337v10.146h-4.213v-21h4.213v7.76h.062a3.846,3.846,0,0,1,3.61-1.777c2,0,3.76,1.168,3.76,3.2v11.814Z" transform="translate(-112.366 -29.329)" fill="#fff"/>
    <path id="Path_618" data-name="Path 618" d="M1194.8,345.2c.151-4.717-.474-8.307-6.173-8.307-5.551,0-6.147,3.446-6.147,7.472,0,4.635.714,7.855,6.147,7.855a6.462,6.462,0,0,0,4.469-1.418,5.153,5.153,0,0,0,1.614-3.836h-4.269c0,1.241-.3,2.659-1.813,2.659-1.874,0-1.935-2.659-1.935-4.426Zm-8.108-2.282c0-1.258-.026-3.493,1.935-3.493,2.025,0,1.964,2.054,1.964,3.493Z" transform="translate(-133.849 -38.366)" fill="#fff"/>
    <path id="Path_619" data-name="Path 619" d="M1240.039,342.876l1.228-4.679h6.178l1.2,4.679h4.765l-5.875-21h-5.962l-5.994,21Zm6.444-7.9h-4.314l2.066-9.062h.058Z" transform="translate(-165.791 -29.329)" fill="#fff"/>
    <path id="Path_620" data-name="Path 620" d="M1289.826,337.208v1.885h.058a3.857,3.857,0,0,1,3.928-2.194v3.681c-3.714-.229-3.772,1.863-3.772,3.319v8.015h-4.216V337.208Z" transform="translate(-196.023 -38.366)" fill="#fff"/>
    <path id="Path_621" data-name="Path 621" d="M1308.472,331.4h1.712v-2.321l4.212-1.836V331.4h2.186v2.533H1314.4v7.891c0,1.112-.031,1.838,1.343,1.838a2.894,2.894,0,0,0,.752-.061v2.517a18.994,18.994,0,0,1-2.191.14c-3.638,0-4.115-2.335-4.115-3.245V333.93h-1.712Z" transform="translate(-209.648 -32.555)" fill="#fff"/>
    <rect id="Rectangle_1189" data-name="Rectangle 1189" width="4.524" height="20.999" transform="translate(1115.429 292.548)" fill="#fff"/>
    <path id="Path_622" data-name="Path 622" d="M1373.268,338.674h.051a3.866,3.866,0,0,1,3.612-1.776c2,0,3.762,1.168,3.762,3.209v11.806h-4.211V341.774c0-1.311-.238-2.339-1.61-2.339s-1.6,1.029-1.6,2.339v10.139h-4.216V337.208h4.216Z" transform="translate(-246.095 -38.366)" fill="#fff"/>
    <path id="Path_623" data-name="Path 623" d="M1408.721,347.234a3.877,3.877,0,0,0,.206,1.748c.234.465.685.694,1.517.694A1.456,1.456,0,0,0,1412,348.17c0-3.117-7.439-2.414-7.439-7.144,0-3.17,3.251-4.128,5.971-4.128,2.875,0,5.488,1.332,5.252,4.511h-4.151c0-1.019-.119-1.634-.421-1.911a1.432,1.432,0,0,0-1.069-.325c-.915,0-1.425.584-1.425,1.579,0,2.329,7.432,2.205,7.432,7,0,2.557-2.167,4.472-5.677,4.472-3.685,0-6.145-.9-5.913-4.991Z" transform="translate(-267.45 -38.366)" fill="#fff"/>
    <path id="Path_624" data-name="Path 624" d="M1437.675,331.4h1.708v-2.321l4.207-1.836V331.4h2.193v2.533h-2.193v7.891c0,1.112-.026,1.838,1.354,1.838a2.9,2.9,0,0,0,.75-.061v2.517a19.236,19.236,0,0,1-2.193.14c-3.642,0-4.118-2.335-4.118-3.245V333.93h-1.708Z" transform="translate(-287.38 -32.555)" fill="#fff"/>
    <path id="Path_625" data-name="Path 625" d="M1469.507,325.1H1465.3v-3.222h4.209Zm0,17.778H1465.3V328.171h4.209Z" transform="translate(-303.998 -29.329)" fill="#fff"/>
    <path id="Path_626" data-name="Path 626" d="M1481.772,331.4h1.706v-2.321l4.21-1.836V331.4h2.186v2.533h-2.186v7.891c0,1.112-.033,1.838,1.346,1.838a2.892,2.892,0,0,0,.751-.061v2.517a19.052,19.052,0,0,1-2.187.14c-3.647,0-4.12-2.335-4.12-3.245V333.93h-1.706Z" transform="translate(-313.91 -32.555)" fill="#fff"/>
    <path id="Path_627" data-name="Path 627" d="M1516.068,350.908H1516a3.857,3.857,0,0,1-3.6,1.779c-2.007,0-3.761-1.168-3.761-3.213v-11.8h4.207v10.191c0,1.323.245,2.277,1.612,2.277s1.612-.955,1.612-2.277V337.676h4.208v11.8c0,.964.056,1.949.147,2.908h-4.355Z" transform="translate(-330.072 -38.834)" fill="#fff"/>
    <path id="Path_628" data-name="Path 628" d="M1542.716,331.4h1.708v-2.321l4.2-1.836V331.4h2.185v2.533h-2.185v7.891c0,1.112-.025,1.838,1.352,1.838a2.839,2.839,0,0,0,.746-.061v2.517a18.852,18.852,0,0,1-2.185.14c-3.638,0-4.118-2.335-4.118-3.245V333.93h-1.708Z" transform="translate(-350.575 -32.555)" fill="#fff"/>
    <path id="Path_629" data-name="Path 629" d="M1579.306,345.2c.149-4.717-.48-8.307-6.173-8.307-5.547,0-6.14,3.446-6.14,7.472,0,4.635.7,7.855,6.14,7.855a6.5,6.5,0,0,0,4.474-1.418,5.175,5.175,0,0,0,1.6-3.836h-4.272c0,1.241-.3,2.659-1.807,2.659-1.873,0-1.935-2.659-1.935-4.426Zm-8.108-2.282c0-1.258-.025-3.493,1.935-3.493,2.03,0,1.963,2.054,1.963,3.493Z" transform="translate(-365.18 -38.366)" fill="#fff"/>
    <path id="Path_630" data-name="Path 630" d="M1606.677,347.234a3.877,3.877,0,0,0,.213,1.748c.236.465.685.694,1.518.694a1.451,1.451,0,0,0,1.556-1.506c0-3.117-7.437-2.414-7.437-7.144,0-3.17,3.244-4.128,5.963-4.128,2.887,0,5.492,1.332,5.253,4.511h-4.15c0-1.019-.114-1.634-.42-1.911a1.426,1.426,0,0,0-1.065-.325c-.927,0-1.434.584-1.434,1.579,0,2.329,7.428,2.205,7.428,7,0,2.557-2.161,4.472-5.668,4.472-3.685,0-6.146-.9-5.91-4.991Z" transform="translate(-386.55 -38.366)" fill="#fff"/>
    <path id="Path_631" data-name="Path 631" d="M973.691,295.39c.167-.4,2.3-5.655,3.343-8.012,1.076-2.44,1.556-2.149,1.556-2.149l2.814,6.816a43.507,43.507,0,0,0-7.713,3.345m37.474,14.817s-.012-19.624-.008-20.027a.487.487,0,0,0-.787-.4c-1.553,1.188-9.06,3.066-9.632,3.166s-.459,1.127-.459,1.127v14.462s-.02.589-.5.621c-.372.018-.531-.452-.587-.581-.105-.259-7.072-16.191-7.072-16.191,2.722-.726,13.616-1.036,18.911-6.093a5.576,5.576,0,0,0,1.85-4.04c0-3.5-3.6-6.334-8.034-6.334s-8.037,2.834-8.037,6.334a5.968,5.968,0,0,0,3.091,4.986c1.116,1.076-2.878,1.606-9,2.369l-7.2-16.475h-.789a8.336,8.336,0,0,1-4.327,3.52s-8.259,18.406-12.046,27.769c-3.513,8.68-6.553,8.372-6.553,8.372v.659h16.017v-.695c-.7-.089-6.356-.978-6.738-5.336-.407-4.621,5.488-10.046,13.142-12.586l.015,0c2.344,5.443,6.1,14.168,6.1,14.168s1.635,3.217-2.675,3.755v.7H1014.8l.013-.659c-3.645-.067-3.652-2.582-3.652-2.582" fill="#ee3124"/>
    <path id="Path_632" data-name="Path 632" d="M1638.893,340.869h.421c.37,0,.483-.333.483-.592,0-.377-.188-.525-.483-.525h-.421Zm0,2.216h-.932v-4h1.723a.962.962,0,0,1,1.047,1.052.885.885,0,0,1-.829.979v.018a.743.743,0,0,1,.81.777,4.988,4.988,0,0,0,.1,1.172h-.914a1.648,1.648,0,0,1-.124-.776c0-.472.077-.878-.648-.878h-.237Zm3.313-1.985a2.875,2.875,0,1,0-2.865,2.807,2.832,2.832,0,0,0,2.865-2.807m.666,0a3.541,3.541,0,1,1-3.531-3.436,3.485,3.485,0,0,1,3.531,3.436" transform="translate(-406.571 -38.827)" fill="#fff"/>
  </g>
</svg>
